<svg xmlns="http://www.w3.org/2000/svg" xmlns:svg="http://www.w3.org/2000/svg" id="svg2" width="600" height="200" version="1.1"><defs id="defs4"><marker id="Arrow1Mend" orient="auto" overflow="visible" refX="0" refY="0"><path id="path5114" fill-rule="evenodd" stroke="#000" stroke-width="1pt" d="M 0,0 5,-5 -12.5,0 5,5 0,0 z" transform="matrix(-0.4,0,0,-0.4,-4,0)"/></marker><marker id="Arrow1Lend" orient="auto" overflow="visible" refX="0" refY="0"><path id="path5108" fill-rule="evenodd" stroke="#000" stroke-width="1pt" d="M 0,0 5,-5 -12.5,0 5,5 0,0 z" transform="matrix(-0.8,0,0,-0.8,-10,0)"/></marker><marker id="Arrow1Mend-7" orient="auto" overflow="visible" refX="0" refY="0"><path id="path5114-0" fill-rule="evenodd" stroke="#000" stroke-width="1pt" d="M 0,0 5,-5 -12.5,0 5,5 0,0 z" transform="matrix(-0.4,0,0,-0.4,-4,0)"/></marker><marker id="Arrow1Mend-4" orient="auto" overflow="visible" refX="0" refY="0"><path id="path5114-3" fill-rule="evenodd" stroke="#000" stroke-width="1pt" d="M 0,0 5,-5 -12.5,0 5,5 0,0 z" transform="matrix(-0.4,0,0,-0.4,-4,0)"/></marker><marker id="Arrow1Mend-1" orient="auto" overflow="visible" refX="0" refY="0"><path id="path5114-7" fill-rule="evenodd" stroke="#000" stroke-width="1pt" d="M 0,0 5,-5 -12.5,0 5,5 0,0 z" transform="matrix(-0.4,0,0,-0.4,-4,0)"/></marker><marker id="Arrow1Mend-5" orient="auto" overflow="visible" refX="0" refY="0"><path id="path5114-6" fill-rule="evenodd" stroke="#000" stroke-width="1pt" d="M 0,0 5,-5 -12.5,0 5,5 0,0 z" transform="matrix(-0.4,0,0,-0.4,-4,0)"/></marker><marker id="Arrow1Mend-75" orient="auto" overflow="visible" refX="0" refY="0"><path id="path5114-4" fill-rule="evenodd" stroke="#000" stroke-width="1pt" d="M 0,0 5,-5 -12.5,0 5,5 0,0 z" transform="matrix(-0.4,0,0,-0.4,-4,0)"/></marker><marker id="Arrow1Mend-2" orient="auto" overflow="visible" refX="0" refY="0"><path id="path5114-8" fill-rule="evenodd" stroke="#000" stroke-width="1pt" d="M 0,0 5,-5 -12.5,0 5,5 0,0 z" transform="matrix(-0.4,0,0,-0.4,-4,0)"/></marker><marker id="Arrow1Mend-58" orient="auto" overflow="visible" refX="0" refY="0"><path id="path5114-70" fill-rule="evenodd" stroke="#000" stroke-width="1pt" d="M 0,0 5,-5 -12.5,0 5,5 0,0 z" transform="matrix(-0.4,0,0,-0.4,-4,0)"/></marker></defs><metadata id="metadata7"/><g id="layer1" transform="translate(0,-852.36216)"><g id="g3457" transform="matrix(1.2166626,0,0,1.0113302,-64.998773,-36.17652)"><rect id="rect3256" width="58.364" height="26.544" x="64.762" y="889.09" fill="none" stroke="#000" stroke-dasharray="none" stroke-dashoffset="0" stroke-linecap="butt" stroke-linejoin="miter" stroke-miterlimit="4" stroke-opacity="1" stroke-width=".42" color="#000" display="inline" enable-background="accumulate" overflow="visible" visibility="visible" style="marker:none"/><rect id="rect3256-7" width="58.364" height="26.544" x="123.604" y="889.09" fill="none" stroke="#000" stroke-dasharray="none" stroke-dashoffset="0" stroke-linecap="butt" stroke-linejoin="miter" stroke-miterlimit="4" stroke-opacity="1" stroke-width=".42" color="#000" display="inline" enable-background="accumulate" overflow="visible" visibility="visible" style="marker:none"/><rect id="rect3256-3" width="58.364" height="26.544" x="182.51" y="889.09" fill="none" stroke="#000" stroke-dasharray="none" stroke-dashoffset="0" stroke-linecap="butt" stroke-linejoin="miter" stroke-miterlimit="4" stroke-opacity="1" stroke-width=".42" color="#000" display="inline" enable-background="accumulate" overflow="visible" visibility="visible" style="marker:none"/><rect id="rect3256-7-3" width="58.364" height="26.544" x="241.352" y="889.09" fill="none" stroke="#000" stroke-dasharray="none" stroke-dashoffset="0" stroke-linecap="butt" stroke-linejoin="miter" stroke-miterlimit="4" stroke-opacity="1" stroke-width=".42" color="#000" display="inline" enable-background="accumulate" overflow="visible" visibility="visible" style="marker:none"/><rect id="rect3256-75" width="58.364" height="26.544" x="300.285" y="889.042" fill="none" stroke="#000" stroke-dasharray="none" stroke-dashoffset="0" stroke-linecap="butt" stroke-linejoin="miter" stroke-miterlimit="4" stroke-opacity="1" stroke-width=".42" color="#000" display="inline" enable-background="accumulate" overflow="visible" visibility="visible" style="marker:none"/><rect id="rect3256-7-7" width="58.364" height="26.544" x="359.126" y="889.042" fill="none" stroke="#000" stroke-dasharray="none" stroke-dashoffset="0" stroke-linecap="butt" stroke-linejoin="miter" stroke-miterlimit="4" stroke-opacity="1" stroke-width=".42" color="#000" display="inline" enable-background="accumulate" overflow="visible" visibility="visible" style="marker:none"/><rect id="rect3256-3-1" width="58.364" height="26.544" x="418.033" y="888.997" fill="none" stroke="#000" stroke-dasharray="none" stroke-dashoffset="0" stroke-linecap="butt" stroke-linejoin="miter" stroke-miterlimit="4" stroke-opacity="1" stroke-width=".42" color="#000" display="inline" enable-background="accumulate" overflow="visible" visibility="visible" style="marker:none"/><rect id="rect3256-7-3-9" width="58.364" height="26.544" x="476.874" y="888.996" fill="none" stroke="#000" stroke-dasharray="none" stroke-dashoffset="0" stroke-linecap="butt" stroke-linejoin="miter" stroke-miterlimit="4" stroke-opacity="1" stroke-width=".42" color="#000" display="inline" enable-background="accumulate" overflow="visible" visibility="visible" style="marker:none"/></g><text id="text3467" x="27.274" y="882.089" fill="#000" fill-opacity="1" stroke="none" font-family="Arial" font-size="8" font-stretch="normal" font-style="normal" font-variant="normal" font-weight="normal" letter-spacing="0" word-spacing="0" xml:space="preserve" style="line-height:125%;-inkscape-font-specification:Arial"><tspan id="tspan3469" x="27.274" y="882.089" font-size="16">RAX7 RAX6 RAX5 RAX4 RAX3 RAX2 RAX1 RAX0</tspan><tspan id="tspan3475" x="27.274" y="922.089" font-size="16"> AH AL</tspan><tspan id="tspan3487" x="27.274" y="962.089" font-size="16"> AX</tspan><tspan id="tspan3491" x="27.274" y="1002.089" font-size="16"> EAX</tspan><tspan id="tspan3493" x="27.274" y="1042.089" font-size="16"> RAX</tspan></text><path id="path3495" fill="none" stroke="#000" stroke-linecap="butt" stroke-linejoin="miter" stroke-opacity="1" stroke-width="1" d="m 443.96204,38.375594 35.86042,18.182746 35.35533,-19.192899 37.37565,19.192899 32.82996,-18.687822 -23.73859,57.073618 -91.4188,0 z" transform="translate(0,852.36216)"/><path id="path3497" fill="none" stroke="#000" stroke-linecap="butt" stroke-linejoin="miter" stroke-opacity="1" stroke-width="1" d="m 300.52038,37.365441 94.95434,94.954339 87.37819,0 79.29698,-36.870568" transform="translate(0,852.36216)"/><path id="path3499" fill="none" stroke="#000" stroke-linecap="butt" stroke-linejoin="miter" stroke-opacity="1" stroke-width="1" d="m 13.637059,37.365441 282.337631,134.855369 162.12949,0 25.25381,-39.39595" transform="translate(0,852.36216)"/></g></svg>